v 1280.16 1674.97 662.72
v 1280.16 1707.42 722.25
v 1280.16 1715.41 742.10
v 1280.16 1719.91 761.94
v 1280.16 1723.27 781.78
v 1280.16 1698.44 801.63
v 1280.16 1667.83 821.47
v 1280.16 1635.14 841.32
v 1280.16 1610.54 861.16
v 1260.64 1461.99 523.81
v 1260.64 1497.37 543.65
v 1260.64 1532.59 563.50
v 1260.64 1568.01 583.34
v 1260.64 1600.94 603.18
v 1260.64 1630.03 623.03
v 1260.64 1655.23 642.87
v 1260.64 1675.38 662.72
v 1260.64 1687.69 682.56
v 1260.64 1699.51 702.41
v 1260.64 1704.60 722.25
v 1260.64 1706.79 742.10
v 1260.64 1712.41 761.94
v 1260.64 1717.71 781.78
v 1260.64 1680.56 801.63
v 1260.64 1646.26 821.47
v 1260.64 1640.78 841.32
v 1260.64 1618.71 861.16
v 1260.64 1597.69 881.01
v 1241.13 1440.27 503.96
v 1241.13 1472.03 523.81
v 1241.13 1505.93 543.65
v 1241.13 1540.08 563.50
v 1241.13 1575.18 583.34
v 1241.13 1609.45 603.18
v 1241.13 1636.78 623.03
v 1241.13 1661.60 642.87
v 1241.13 1672.58 662.72
v 1241.13 1685.86 682.56
v 1241.13 1695.43 702.41
v 1241.13 1692.99 722.25
v 1241.13 1697.66 742.10
v 1241.13 1703.88 761.94
v 1241.13 1706.07 781.78
v 1241.13 1669.94 801.63
v 1241.13 1642.25 821.47
v 1241.13 1615.15 841.32
v 1241.13 1618.20 861.16
v 1241.13 1609.75 881.01
v 1241.13 1580.45 900.85
v 1241.13 1557.16 920.69
v 1221.61 1452.11 503.96
v 1221.61 1484.94 523.81
v 1221.61 1516.88 543.65
v 1221.61 1550.71 563.50
v 1221.61 1586.03 583.34
v 1221.61 1621.43 603.18
v 1221.61 1640.65 623.03
v 1221.61 1643.22 642.87
v 1221.61 1661.04 662.72
v 1221.61 1676.83 682.56
v 1221.61 1677.41 702.41
v 1221.61 1676.66 722.25
v 1221.61 1687.63 742.10
v 1221.61 1695.76 761.94
v 1221.61 1689.66 781.78
v 1221.61 1660.57 801.63
v 1221.61 1642.37 821.47
v 1221.61 1598.35 841.32
v 1221.61 1587.41 861.16
v 1221.61 1584.72 881.01
v 1221.61 1579.04 900.85
v 1221.61 1562.42 920.69
v 1221.61 1538.20 940.54
v 1221.61 1509.89 960.38
v 1202.10 1462.91 503.96
v 1202.10 1491.22 523.81
v 1202.10 1520.93 543.65
v 1202.10 1556.53 563.50
v 1202.10 1597.52 583.34
v 1202.10 1616.67 603.18
v 1202.10 1620.64 623.03
v 1202.10 1617.22 642.87
v 1202.10 1637.48 662.72
v 1202.10 1652.74 682.56
v 1202.10 1649.16 702.41
v 1202.10 1659.62 722.25
v 1202.10 1679.55 742.10
v 1202.10 1688.26 761.94
v 1202.10 1669.05 781.78
v 1202.10 1648.76 801.63
v 1202.10 1635.44 821.47
v 1202.10 1582.40 841.32
v 1202.10 1567.59 861.16
v 1202.10 1554.00 881.01
v 1202.10 1548.49 900.85
v 1202.10 1548.56 920.69
v 1202.10 1540.03 940.54
v 1202.10 1513.48 960.38
v 1202.10 1486.60 980.23
v 1202.10 1467.65 1000.07
v 1202.10 1448.58 1019.92
v 1182.58 1458.72 503.96
v 1182.58 1488.53 523.81
v 1182.58 1517.62 543.65
v 1182.58 1554.67 563.50
v 1182.58 1593.16 583.34
v 1182.58 1604.51 603.18
v 1182.58 1609.81 623.03
v 1182.58 1599.39 642.87
v 1182.58 1593.48 662.72
v 1182.58 1616.35 682.56
v 1182.58 1631.02 702.41
v 1182.58 1641.32 722.25
v 1182.58 1659.14 742.10
v 1182.58 1680.54 761.94
v 1182.58 1646.10 781.78
v 1182.58 1632.70 801.63
v 1182.58 1586.89 821.47
v 1182.58 1566.85 841.32
v 1182.58 1550.10 861.16
v 1182.58 1537.18 881.01
v 1182.58 1525.78 900.85
v 1182.58 1515.65 920.69
v 1182.58 1511.19 940.54
v 1182.58 1507.44 960.38
v 1182.58 1491.14 980.23
v 1182.58 1471.24 1000.07
v 1182.58 1454.95 1019.92
v 1163.06 1446.83 503.96
v 1163.06 1479.78 523.81
v 1163.06 1510.28 543.65
v 1163.06 1542.64 563.50
v 1163.06 1582.33 583.34
v 1163.06 1589.73 603.18
v 1163.06 1598.07 623.03
v 1163.06 1588.65 642.87
v 1163.06 1573.52 662.72
v 1163.06 1588.58 682.56
v 1163.06 1603.25 702.41
v 1163.06 1620.56 722.25
v 1163.06 1634.94 742.10
v 1163.06 1654.64 761.94
v 1163.06 1628.28 781.78
v 1163.06 1615.79 801.63
v 1163.06 1570.58 821.47
v 1163.06 1552.27 841.32
v 1163.06 1536.43 861.16
v 1163.06 1523.58 881.01
v 1163.06 1509.66 900.85
v 1163.06 1497.01 920.69
v 1163.06 1485.30 940.54
v 1163.06 1476.64 960.38
v 1163.06 1472.58 980.23
v 1163.06 1474.80 1000.07
v 1163.06 1465.10 1019.92
v 1163.06 1446.88 1039.76
v 1163.06 1425.67 1059.60
v 1163.06 1405.79 1079.45
v 1143.55 1436.06 503.96
v 1143.55 1465.50 523.81
v 1143.55 1498.29 543.65
v 1143.55 1531.82 563.50
v 1143.55 1571.60 583.34
v 1143.55 1580.28 603.18
v 1143.55 1581.98 623.03
v 1143.55 1578.08 642.87
v 1143.55 1554.82 662.72
v 1143.55 1557.10 682.56
v 1143.55 1579.65 702.41
v 1143.55 1594.31 722.25
v 1143.55 1608.97 742.10
v 1143.55 1623.58 761.94
v 1143.55 1599.81 781.78
v 1143.55 1570.73 801.63
v 1143.55 1549.01 821.47
v 1143.55 1534.26 841.32
v 1143.55 1520.53 861.16
v 1143.55 1511.63 881.01
v 1143.55 1502.65 900.85
v 1143.55 1488.04 920.69
v 1143.55 1470.51 940.54
v 1143.55 1454.88 960.38
v 1143.55 1444.26 980.23
v 1143.55 1445.81 1000.07
v 1143.55 1450.99 1019.92
v 1143.55 1451.56 1039.76
v 1143.55 1434.09 1059.60
v 1143.55 1418.14 1079.45
v 1143.55 1400.74 1099.29
v 1124.03 1412.65 503.96
v 1124.03 1444.94 523.81
v 1124.03 1481.63 543.65
v 1124.03 1519.85 563.50
v 1124.03 1549.22 583.34
v 1124.03 1561.59 603.18
v 1124.03 1560.21 623.03
v 1124.03 1557.20 642.87
v 1124.03 1536.76 662.72
v 1124.03 1530.00 682.56
v 1124.03 1553.48 702.41
v 1124.03 1569.32 722.25
v 1124.03 1585.13 742.10
v 1124.03 1591.95 761.94
v 1124.03 1571.23 781.78
v 1124.03 1558.48 801.63
v 1124.03 1544.66 821.47
v 1124.03 1530.27 841.32
v 1124.03 1516.98 861.16
v 1124.03 1504.30 881.01
v 1124.03 1487.57 900.85
v 1124.03 1472.28 920.69
v 1124.03 1455.41 940.54
v 1124.03 1438.82 960.38
v 1124.03 1425.79 980.23
v 1124.03 1422.16 1000.07
v 1124.03 1422.54 1019.92
v 1124.03 1424.37 1039.76
v 1124.03 1432.95 1059.60
v 1124.03 1431.49 1079.45
v 1124.03 1416.84 1099.29
v 1124.03 1395.92 1119.14
v 1124.03 1374.69 1138.98
v 1104.52 1389.36 503.96
v 1104.52 1422.73 523.81
v 1104.52 1453.79 543.65
v 1104.52 1487.50 563.50
v 1104.52 1511.11 583.34
v 1104.52 1533.57 603.18
v 1104.52 1537.14 623.03
v 1104.52 1531.24 642.87
v 1104.52 1518.13 662.72
v 1104.52 1509.84 682.56
v 1104.52 1533.15 702.41
v 1104.52 1549.45 722.25
v 1104.52 1567.81 742.10
v 1104.52 1556.57 761.94
v 1104.52 1553.68 781.78
v 1104.52 1536.43 801.63
v 1104.52 1521.13 821.47
v 1104.52 1506.81 841.32
v 1104.52 1492.72 861.16
v 1104.52 1479.37 881.01
v 1104.52 1465.22 900.85
v 1104.52 1451.96 920.69
v 1104.52 1438.23 940.54
v 1104.52 1423.57 960.38
v 1104.52 1412.57 980.23
v 1104.52 1404.77 1000.07
v 1104.52 1401.43 1019.92
v 1104.52 1402.17 1039.76
v 1104.52 1406.20 1059.60
v 1104.52 1411.86 1079.45
v 1104.52 1425.99 1099.29
v 1104.52 1408.44 1119.14
v 1104.52 1386.22 1138.98
v 1104.52 1369.33 1158.83
v 1085.00 1368.32 503.96
v 1085.00 1398.35 523.81
v 1085.00 1426.92 543.65
v 1085.00 1457.56 563.50
v 1085.00 1487.39 583.34
v 1085.00 1516.89 603.18
v 1085.00 1520.37 623.03
v 1085.00 1505.53 642.87
v 1085.00 1486.79 662.72
v 1085.00 1486.10 682.56
v 1085.00 1510.89 702.41
v 1085.00 1533.06 722.25
v 1085.00 1554.82 742.10
v 1085.00 1545.72 761.94
v 1085.00 1545.00 781.78
v 1085.00 1517.26 801.63
v 1085.00 1500.22 821.47
v 1085.00 1485.92 841.32
v 1085.00 1472.66 861.16
v 1085.00 1459.69 881.01
v 1085.00 1446.96 900.85
v 1085.00 1434.18 920.69
v 1085.00 1421.26 940.54
v 1085.00 1408.63 960.38
v 1085.00 1399.23 980.23
v 1085.00 1392.60 1000.07
v 1085.00 1387.55 1019.92
v 1085.00 1384.17 1039.76
v 1085.00 1378.21 1059.60
v 1085.00 1373.75 1079.45
v 1085.00 1385.26 1099.29
v 1085.00 1397.15 1119.14
v 1085.00 1395.10 1138.98
v 1085.00 1379.37 1158.83
v 1085.00 1360.69 1178.67
v 1085.00 1350.59 1198.51
v 1085.00 1342.36 1218.36
v 1065.49 1343.90 503.96
v 1065.49 1371.91 523.81
v 1065.49 1399.44 543.65
v 1065.49 1429.27 563.50
v 1065.49 1461.93 583.34
v 1065.49 1497.29 603.18
v 1065.49 1495.40 623.03
v 1065.49 1488.07 642.87
v 1065.49 1461.75 662.72
v 1065.49 1470.17 682.56
v 1065.49 1498.93 702.41
v 1065.49 1511.34 722.25
v 1065.49 1538.72 742.10
v 1065.49 1520.43 761.94
v 1065.49 1506.71 781.78
v 1065.49 1491.75 801.63
v 1065.49 1478.40 821.47
v 1065.49 1466.43 841.32
v 1065.49 1454.39 861.16
v 1065.49 1442.78 881.01
v 1065.49 1430.34 900.85
v 1065.49 1418.92 920.69
v 1065.49 1405.93 940.54
v 1065.49 1393.20 960.38
v 1065.49 1387.97 980.23
v 1065.49 1382.57 1000.07
v 1065.49 1375.36 1019.92
v 1065.49 1374.44 1039.76
v 1065.49 1369.25 1059.60
v 1065.49 1363.14 1079.45
v 1065.49 1356.95 1099.29
v 1065.49 1358.69 1119.14
v 1065.49 1372.81 1138.98
v 1065.49 1385.39 1158.83
v 1065.49 1367.42 1178.67
v 1065.49 1355.19 1198.51
v 1065.49 1350.69 1218.36
v 1065.49 1345.87 1238.20
v 1045.97 1328.07 503.96
v 1045.97 1353.06 523.81
v 1045.97 1380.34 543.65
v 1045.97 1408.11 563.50
v 1045.97 1438.54 583.34
v 1045.97 1474.67 603.18
v 1045.97 1473.42 623.03
v 1045.97 1448.64 642.87
v 1045.97 1443.62 662.72
v 1045.97 1459.87 682.56
v 1045.97 1481.79 702.41
v 1045.97 1495.93 722.25
v 1045.97 1493.63 742.10
v 1045.97 1487.29 761.94
v 1045.97 1481.16 781.78
v 1045.97 1475.06 801.63
v 1045.97 1464.99 821.47
v 1045.97 1454.51 841.32
v 1045.97 1442.11 861.16
v 1045.97 1430.64 881.01
v 1045.97 1419.11 900.85
v 1045.97 1406.30 920.69
v 1045.97 1391.23 940.54
v 1045.97 1378.76 960.38
v 1045.97 1376.88 980.23
v 1045.97 1373.52 1000.07
v 1045.97 1357.97 1019.92
v 1045.97 1356.40 1039.76
v 1045.97 1345.73 1059.60
v 1045.97 1343.79 1079.45
v 1045.97 1343.78 1099.29
v 1045.97 1341.43 1119.14
v 1045.97 1344.14 1138.98
v 1045.97 1360.16 1158.83
v 1045.97 1370.04 1178.67
v 1045.97 1357.49 1198.51
v 1045.97 1353.52 1218.36
v 1045.97 1354.08 1238.20
v 1026.46 1314.95 503.96
v 1026.46 1340.08 523.81
v 1026.46 1365.74 543.65
v 1026.46 1393.02 563.50
v 1026.46 1421.82 583.34
v 1026.46 1451.17 603.18
v 1026.46 1454.36 623.03
v 1026.46 1435.05 642.87
v 1026.46 1428.06 662.72
v 1026.46 1446.49 682.56
v 1026.46 1462.68 702.41
v 1026.46 1482.30 722.25
v 1026.46 1484.26 742.10
v 1026.46 1475.36 761.94
v 1026.46 1464.04 781.78
v 1026.46 1451.10 801.63
v 1026.46 1440.64 821.47
v 1026.46 1433.37 841.32
v 1026.46 1419.42 861.16
v 1026.46 1409.80 881.01
v 1026.46 1406.70 900.85
v 1026.46 1395.60 920.69
v 1026.46 1371.39 940.54
v 1026.46 1363.32 960.38
v 1026.46 1352.77 980.23
v 1026.46 1346.57 1000.07
v 1026.46 1341.08 1019.92
v 1026.46 1336.46 1039.76
v 1026.46 1332.05 1059.60
v 1026.46 1328.47 1079.45
v 1026.46 1327.35 1099.29
v 1026.46 1326.77 1119.14
v 1026.46 1328.86 1138.98
v 1026.46 1335.57 1158.83
v 1026.46 1352.21 1178.67
v 1026.46 1361.17 1198.51
v 1026.46 1355.74 1218.36
v 1026.46 1358.56 1238.20
v 1026.46 1362.26 1258.05
v 1026.46 1364.51 1277.89
v 1026.46 1369.21 1297.74
v 1006.94 1323.31 523.81
v 1006.94 1349.35 543.65
v 1006.94 1377.69 563.50
v 1006.94 1405.88 583.34
v 1006.94 1432.21 603.18
v 1006.94 1436.04 623.03
v 1006.94 1413.61 642.87
v 1006.94 1411.01 662.72
v 1006.94 1434.37 682.56
v 1006.94 1451.94 702.41
v 1006.94 1468.42 722.25
v 1006.94 1483.52 742.10
v 1006.94 1477.62 761.94
v 1006.94 1468.45 781.78
v 1006.94 1457.71 801.63
v 1006.94 1439.44 821.47
v 1006.94 1415.09 841.32
v 1006.94 1399.23 861.16
v 1006.94 1391.79 881.01
v 1006.94 1377.01 900.85
v 1006.94 1364.76 920.69
v 1006.94 1356.75 940.54
v 1006.94 1353.16 960.38
v 1006.94 1337.49 980.23
v 1006.94 1332.15 1000.07
v 1006.94 1326.87 1019.92
v 1006.94 1322.63 1039.76
v 1006.94 1319.40 1059.60
v 1006.94 1316.38 1079.45
v 1006.94 1315.64 1099.29
v 1006.94 1316.94 1119.14
v 1006.94 1320.85 1138.98
v 1006.94 1327.16 1158.83
v 1006.94 1340.41 1178.67
v 1006.94 1355.87 1198.51
v 1006.94 1352.26 1218.36
v 1006.94 1357.42 1238.20
v 1006.94 1369.35 1258.05
v 1006.94 1372.18 1277.89
v 1006.94 1371.92 1297.74
v 1006.94 1386.07 1317.58
v 1006.94 1393.66 1337.42
v 987.42 1306.62 523.81
v 987.42 1332.06 543.65
v 987.42 1360.03 563.50
v 987.42 1387.84 583.34
v 987.42 1410.00 603.18
v 987.42 1394.40 623.03
v 987.42 1394.17 642.87
v 987.42 1394.25 662.72
v 987.42 1414.65 682.56
v 987.42 1432.53 702.41
v 987.42 1449.55 722.25
v 987.42 1468.32 742.10
v 987.42 1463.94 761.94
v 987.42 1458.18 781.78
v 987.42 1438.81 801.63
v 987.42 1425.27 821.47
v 987.42 1410.73 841.32
v 987.42 1396.94 861.16
v 987.42 1382.03 881.01
v 987.42 1361.87 900.85
v 987.42 1350.42 920.69
v 987.42 1345.94 940.54
v 987.42 1341.55 960.38
v 987.42 1327.28 980.23
v 987.42 1319.53 1000.07
v 987.42 1311.00 1019.92
v 987.42 1306.01 1039.76
v 987.42 1301.31 1059.60
v 987.42 1298.26 1079.45
v 987.42 1298.04 1099.29
v 987.42 1301.58 1119.14
v 987.42 1308.64 1138.98
v 987.42 1318.57 1158.83
v 987.42 1334.03 1178.67
v 987.42 1349.90 1198.51
v 987.42 1343.75 1218.36
v 987.42 1350.20 1238.20
v 987.42 1360.71 1258.05
v 987.42 1370.75 1277.89
v 987.42 1382.28 1297.74
v 987.42 1393.79 1317.58
v 987.42 1404.32 1337.42
v 987.42 1413.25 1357.27
v 967.91 1290.77 523.81
v 967.91 1316.20 543.65
v 967.91 1343.11 563.50
v 967.91 1371.36 583.34
v 967.91 1397.32 603.18
v 967.91 1377.37 623.03
v 967.91 1372.30 642.87
v 967.91 1369.18 662.72
v 967.91 1395.74 682.56
v 967.91 1416.76 702.41
v 967.91 1432.27 722.25
v 967.91 1445.22 742.10
v 967.91 1448.07 761.94
v 967.91 1431.37 781.78
v 967.91 1417.90 801.63
v 967.91 1404.27 821.47
v 967.91 1395.89 841.32
v 967.91 1378.62 861.16
v 967.91 1363.66 881.01
v 967.91 1348.66 900.85
v 967.91 1342.01 920.69
v 967.91 1336.57 940.54
v 967.91 1316.04 960.38
v 967.91 1318.91 980.23
v 967.91 1310.13 1000.07
v 967.91 1300.16 1019.92
v 967.91 1298.05 1039.76
v 967.91 1289.55 1059.60
v 967.91 1284.53 1079.45
v 967.91 1281.56 1099.29
v 967.91 1291.06 1119.14
v 967.91 1297.71 1138.98
v 967.91 1311.95 1158.83
v 967.91 1332.42 1178.67
v 967.91 1337.20 1198.51
v 967.91 1334.60 1218.36
v 967.91 1343.75 1238.20
v 967.91 1355.49 1258.05
v 967.91 1368.61 1277.89
v 967.91 1382.71 1297.74
v 967.91 1392.29 1317.58
v 967.91 1404.00 1337.42
v 967.91 1415.01 1357.27
v 948.39 1278.41 523.81
v 948.39 1303.62 543.65
v 948.39 1332.88 563.50
v 948.39 1360.01 583.34
v 948.39 1376.65 603.18
v 948.39 1361.26 623.03
v 948.39 1350.66 642.87
v 948.39 1351.42 662.72
v 948.39 1377.01 682.56
v 948.39 1390.80 702.41
v 948.39 1414.79 722.25
v 948.39 1422.23 742.10
v 948.39 1437.10 761.94
v 948.39 1412.16 781.78
v 948.39 1401.28 801.63
v 948.39 1397.81 821.47
v 948.39 1382.56 841.32
v 948.39 1357.50 861.16
v 948.39 1343.31 881.01
v 948.39 1333.99 900.85
v 948.39 1332.62 920.69
v 948.39 1309.75 940.54
v 948.39 1303.99 960.38
v 948.39 1307.82 980.23
v 948.39 1292.20 1000.07
v 948.39 1294.56 1019.92
v 948.39 1295.88 1039.76
v 948.39 1271.89 1059.60
v 948.39 1267.41 1079.45
v 948.39 1262.00 1099.29
v 948.39 1281.43 1119.14
v 948.39 1285.39 1138.98
v 948.39 1311.15 1158.83
v 948.39 1325.57 1178.67
v 948.39 1323.06 1198.51
v 948.39 1324.47 1218.36
v 948.39 1333.93 1238.20
v 948.39 1347.26 1258.05
v 948.39 1363.38 1277.89
v 948.39 1379.51 1297.74
v 948.39 1387.54 1317.58
v 948.39 1398.26 1337.42
v 948.39 1410.44 1357.27
v 928.88 1229.20 484.12
v 928.88 1245.38 503.96
v 928.88 1267.84 523.81
v 928.88 1296.90 543.65
v 928.88 1322.16 563.50
v 928.88 1347.15 583.34
v 928.88 1353.00 603.18
v 928.88 1345.65 623.03
v 928.88 1323.71 642.87
v 928.88 1338.62 662.72
v 928.88 1355.78 682.56
v 928.88 1372.79 702.41
v 928.88 1386.70 722.25
v 928.88 1400.69 742.10
v 928.88 1413.69 761.94
v 928.88 1395.01 781.78
v 928.88 1380.96 801.63
v 928.88 1365.05 821.47
v 928.88 1351.08 841.32
v 928.88 1336.66 861.16
v 928.88 1329.35 881.01
v 928.88 1314.02 900.85
v 928.88 1299.30 920.69
v 928.88 1291.26 940.54
v 928.88 1284.44 960.38
v 928.88 1273.55 980.23
v 928.88 1266.07 1000.07
v 928.88 1263.46 1019.92
v 928.88 1256.03 1039.76
v 928.88 1255.58 1059.60
v 928.88 1236.25 1079.45
v 928.88 1261.58 1099.29
v 928.88 1263.45 1119.14
v 928.88 1280.85 1138.98
v 928.88 1305.88 1158.83
v 928.88 1308.68 1178.67
v 928.88 1309.70 1198.51
v 928.88 1315.01 1218.36
v 928.88 1323.94 1238.20
v 928.88 1336.63 1258.05
v 928.88 1352.48 1277.89
v 928.88 1371.50 1297.74
v 928.88 1379.29 1317.58
v 928.88 1391.85 1337.42
v 928.88 1406.64 1357.27
v 909.36 1205.93 464.27
v 909.36 1218.52 484.12
v 909.36 1234.38 503.96
v 909.36 1252.27 523.81
v 909.36 1283.12 543.65
v 909.36 1312.89 563.50
v 909.36 1330.70 583.34
v 909.36 1332.92 603.18
v 909.36 1309.13 623.03
v 909.36 1305.83 642.87
v 909.36 1322.57 662.72
v 909.36 1337.00 682.56
v 909.36 1352.83 702.41
v 909.36 1372.50 722.25
v 909.36 1383.38 742.10
v 909.36 1394.57 761.94
v 909.36 1376.61 781.78
v 909.36 1359.43 801.63
v 909.36 1345.24 821.47
v 909.36 1332.71 841.32
v 909.36 1323.35 861.16
v 909.36 1319.15 881.01
v 909.36 1288.36 900.85
v 909.36 1286.69 920.69
v 909.36 1282.44 940.54
v 909.36 1270.46 960.38
v 909.36 1259.91 980.23
v 909.36 1248.98 1000.07
v 909.36 1241.40 1019.92
v 909.36 1235.50 1039.76
v 909.36 1230.20 1059.60
v 909.36 1222.54 1079.45
v 909.36 1243.98 1099.29
v 909.36 1253.21 1119.14
v 909.36 1280.75 1138.98
v 909.36 1295.87 1158.83
v 909.36 1291.60 1178.67
v 909.36 1296.49 1198.51
v 909.36 1303.27 1218.36
v 909.36 1312.47 1238.20
v 909.36 1323.57 1258.05
v 909.36 1333.42 1277.89
v 909.36 1354.80 1297.74
v 909.36 1368.79 1317.58
v 909.36 1388.17 1337.42
v 909.36 1408.22 1357.27
v 889.85 1180.45 444.43
v 889.85 1190.75 464.27
v 889.85 1203.00 484.12
v 889.85 1217.56 503.96
v 889.85 1235.94 523.81
v 889.85 1261.69 543.65
v 889.85 1294.14 563.50
v 889.85 1317.96 583.34
v 889.85 1309.48 603.18
v 889.85 1287.34 623.03
v 889.85 1291.42 642.87
v 889.85 1302.58 662.72
v 889.85 1318.72 682.56
v 889.85 1332.76 702.41
